<svg width="30" height="30" viewBox="0 0 30 30" fill="none" xmlns="http://www.w3.org/2000/svg">
<g clip-path="url(#clip0_8_331)">
<path d="M15 3.74989C16.7611 3.7495 18.4976 4.16254 20.0699 4.95578C21.6422 5.74902 23.0063 6.90029 24.0524 8.31694C25.0985 9.73359 25.7975 11.376 26.093 13.1121C26.3885 14.8482 26.2723 16.6294 25.7538 18.3124C26.2239 19.3538 26.3657 20.5136 26.1604 21.6376C25.9551 22.7616 25.4124 23.7964 24.6045 24.6043C23.7965 25.4123 22.7617 25.955 21.6377 26.1603C20.5138 26.3656 19.3539 26.2238 18.3125 25.7536C16.3572 26.3568 14.2745 26.4152 12.2885 25.9227C10.3024 25.4302 8.48835 24.4053 7.04148 22.9584C5.59461 21.5115 4.56974 19.6975 4.07721 17.7114C3.58467 15.7254 3.64312 13.6427 4.24626 11.6874C3.77573 10.646 3.63356 9.48591 3.83869 8.36167C4.04382 7.23744 4.58651 6.20235 5.39452 5.3942C6.20253 4.58605 7.23753 4.04319 8.36173 3.83787C9.48593 3.63255 10.646 3.77452 11.6875 4.24489C12.7607 3.91529 13.8773 3.74843 15 3.74989V3.74989Z" stroke="white" stroke-width="2.5" stroke-linecap="round" stroke-linejoin="round"/>
<path d="M10 18.125C10.625 20.625 12.9475 21.25 15 21.25C18.6312 21.25 20 19.7662 20 18.125C20 16.2462 17.5912 15 15 15C12.4088 15 10 13.7538 10 11.875C10 10.2338 11.3688 8.75 15 8.75C17.0525 8.75 19.375 9.375 20 11.875" stroke="white" stroke-width="2.5" stroke-linecap="round" stroke-linejoin="round"/>
</g>
<defs>
<clipPath id="clip0_8_331">
<rect width="30" height="30" fill="white"/>
</clipPath>
</defs>
</svg>
