<svg width="30" height="31" viewBox="0 0 30 31" fill="none" xmlns="http://www.w3.org/2000/svg">
<g clip-path="url(#clip0_8_318)">
<path d="M3.75 26.6524L5.8125 21.9551C4.23458 19.7401 3.52833 17.0317 3.82631 14.3383C4.12428 11.6449 5.40598 9.15157 7.43088 7.3263C9.45579 5.50102 12.0847 4.46925 14.8242 4.42461C17.5638 4.37997 20.2256 5.32553 22.3102 7.08384C24.3948 8.84215 25.7589 11.2923 26.1465 13.9746C26.534 16.6568 25.9184 19.3867 24.4151 21.652C22.9119 23.9172 20.6243 25.5621 17.9817 26.278C15.3392 26.9938 12.5233 26.7313 10.0625 25.5399L3.75 26.6524" stroke="white" stroke-width="2.5" stroke-linecap="round" stroke-linejoin="round"/>
<path d="M11.25 13.0551C11.25 13.219 11.3158 13.3762 11.4331 13.4921C11.5503 13.608 11.7092 13.6732 11.875 13.6732C12.0408 13.6732 12.1997 13.608 12.3169 13.4921C12.4342 13.3762 12.5 13.219 12.5 13.0551V11.819C12.5 11.6551 12.4342 11.4979 12.3169 11.382C12.1997 11.266 12.0408 11.2009 11.875 11.2009C11.7092 11.2009 11.5503 11.266 11.4331 11.382C11.3158 11.4979 11.25 11.6551 11.25 11.819V13.0551ZM11.25 13.0551C11.25 14.6943 11.9085 16.2664 13.0806 17.4254C14.2527 18.5845 15.8424 19.2357 17.5 19.2357H18.75C18.9158 19.2357 19.0747 19.1706 19.1919 19.0547C19.3092 18.9388 19.375 18.7816 19.375 18.6176C19.375 18.4537 19.3092 18.2965 19.1919 18.1806C19.0747 18.0647 18.9158 17.9996 18.75 17.9996H17.5C17.3342 17.9996 17.1753 18.0647 17.0581 18.1806C16.9408 18.2965 16.875 18.4537 16.875 18.6176C16.875 18.7816 16.9408 18.9388 17.0581 19.0547C17.1753 19.1706 17.3342 19.2357 17.5 19.2357" stroke="white" stroke-width="2.5" stroke-linecap="round" stroke-linejoin="round"/>
</g>
<defs>
<clipPath id="clip0_8_318">
<rect width="30" height="29.6668" fill="white" transform="translate(0 0.693848)"/>
</clipPath>
</defs>
</svg>
